
<svg width="394" height="177" viewBox="0 0 394 177" fill="none" xmlns="http://www.w3.org/2000/svg">
<g clip-path="url(#clip0_157_281)">
<path d="M31.9022 110.204C30.4645 108.497 29.0268 106.79 27.5547 104.937C27.7372 104.597 27.9277 104.355 28.1755 104.215C30.1882 103.073 32.2339 101.987 34.225 100.809C35.8527 99.8463 37.4191 98.7799 39.0869 97.7296C39.31 97.6377 39.4588 97.5756 39.6384 97.6019C39.9178 97.8349 40.1496 98.035 40.4175 98.1159C43.6999 99.1062 47.1022 99.2512 50.4879 99.4622C51.5334 99.5274 52.595 99.2742 53.6488 99.2778C55.5832 99.2844 57.4869 99.0262 59.405 98.8398C62.173 98.5709 64.8316 97.8987 67.4658 97.0925C69.8592 96.3599 72.1574 95.369 74.3266 94.12C75.8323 93.2531 77.3203 92.3378 78.7261 91.3197C80.5289 90.0141 82.2712 88.6195 83.9815 87.1937C85.022 86.3262 85.953 85.3276 87.0331 84.3911C87.688 84.4514 88.2535 84.4586 88.7955 84.5754C90.2135 84.8811 91.6212 85.2346 93.033 85.569C92.3835 85.8421 91.7341 86.1152 90.9372 86.4503C89.0383 92.578 86.5637 98.6357 82.8505 104.243C81.6415 104.787 80.5666 105.26 79.5333 105.811C78.9091 106.143 78.3495 106.597 77.7661 107.004C77.7712 107.012 77.7624 106.996 77.6952 107C77.5229 107.079 77.4179 107.154 77.251 107.255C77.025 107.343 76.8609 107.405 76.5973 107.473C74.594 107.963 72.6676 108.374 70.7903 108.945C65.3013 110.617 60.0796 112.943 54.9882 115.57C54.4212 115.862 53.8785 116.202 53.2564 116.546C53.0944 116.597 53.0005 116.621 52.8488 116.57C52.051 116.378 51.314 116.234 50.5701 116.15C47.5972 115.815 44.7057 115.084 41.8546 114.233C38.8828 113.346 36.0191 112.151 33.2763 110.683C32.854 110.457 32.362 110.36 31.9022 110.204Z" fill="#940A03"/>
<path d="M19.2141 87.8559C19.0361 87.3612 18.8581 86.8664 18.6676 86.337C18.1548 86.2747 17.6344 86.2434 17.1273 86.1443C15.2564 85.7789 14.1394 84.4686 13.2086 82.949C11.5992 80.3216 10.4793 77.4796 9.65039 74.4685C11.3661 74.6972 12.9848 75.0426 14.6164 75.3094C15.6167 75.4729 16.635 75.5681 17.6483 75.6025C19.7221 75.6732 21.798 75.6871 23.8733 75.7078C24.0502 75.7096 24.2283 75.5879 24.4997 75.5242C24.8426 75.5475 25.0917 75.57 25.4063 75.6322C25.8312 75.7837 26.187 75.9096 26.5508 76.0054C30.0952 76.9388 33.7075 77.0654 37.3389 76.8485C38.3828 76.7861 39.4169 76.5605 40.551 76.4238C40.7744 76.4507 40.9023 76.4634 41.0796 76.5348C42.6231 77.2396 44.0964 77.9404 45.6157 78.5207C49.1809 79.8823 52.9389 80.4269 56.7025 80.7223C59.7182 80.959 62.7773 80.9449 65.7877 80.5042C70.0089 79.8863 74.0837 78.6912 77.8629 76.6996C80.2376 75.4483 82.4736 73.9346 84.776 72.5457C85.3242 72.215 85.8894 71.9126 86.5149 71.6387C89.4389 73.7033 92.3211 75.6852 95.55 77.2221C95.0953 77.7012 94.7381 78.0775 94.2792 78.4622C93.1211 78.5509 92.0629 78.613 91.0086 78.7153C88.6002 78.949 86.178 79.1005 83.7902 79.471C79.9788 80.0625 76.204 80.8477 72.4754 81.8697C66.6075 83.478 60.9137 85.5391 55.4931 88.296C52.3182 89.9107 49.2132 91.6686 46.1255 93.4467C44.2254 94.5409 42.4172 95.7947 40.495 97.0034C40.2269 97.0881 40.0316 97.1462 39.7486 97.1915C38.7872 97.1381 37.9136 97.0977 36.9342 97.0373C36.6156 96.9856 36.4028 96.954 36.135 96.8723C34.6886 96.2314 33.2813 95.6753 31.9091 95.0432C27.8755 93.1852 24.1956 90.7146 20.4364 88.3812C20.0639 88.1499 19.6232 88.0283 19.2141 87.8559Z" fill="#686832"/>
<path d="M62.0325 25.7707C61.4551 25.3506 60.8947 24.9046 60.2977 24.5145C55.7111 21.5176 50.774 19.3114 45.404 18.1805C42.8894 17.6509 40.3353 17.2824 37.7841 16.9586C34.0827 16.4887 30.3516 16.5123 26.6395 16.7394C22.2719 17.0065 18.0126 17.9187 13.8927 19.427C13.619 19.5272 13.3364 19.6033 12.8047 19.7701C13.0866 19.2209 13.2453 18.8654 13.4432 18.5333C15.9469 14.3319 19.2398 10.8377 23.2183 8.03164C25.2575 6.59335 27.4921 5.43237 29.6332 4.13735C30.5995 3.55281 31.6671 3.36489 32.7673 3.2447C36.052 2.88587 39.3484 2.72691 42.6476 2.80603C50.1258 2.98536 57.2937 4.57376 64.1259 7.65358C68.6025 9.67152 72.7546 12.2712 76.9909 14.7217C77.451 14.9879 77.9092 15.2574 78.4291 15.6077C78.4899 15.6901 78.4975 15.767 78.4443 15.825C76.9747 16.7513 75.5572 17.6177 74.1422 18.4883C71.1835 20.3086 68.2218 22.1239 65.271 23.9569C64.3176 24.5491 63.3945 25.1902 62.3864 25.805C62.2211 25.791 62.1268 25.7808 62.0325 25.7707Z" fill="#BB5A29"/>
<path d="M80.3344 113.661C80.6545 115.095 80.9132 116.547 81.306 117.962C82.4848 122.206 84.45 126.007 87.7583 129.017C87.925 129.168 88.1003 129.31 88.3552 129.528C87.8248 129.822 87.4052 130.067 86.9755 130.292C83.5004 132.11 80.3406 134.419 77.0919 136.594C73.7809 138.809 70.4191 140.949 66.9779 143.197C66.785 143.27 66.6937 143.269 66.5531 143.208C65.2375 142.456 63.9413 141.814 62.7101 141.066C58.6898 138.62 54.7145 136.1 50.6779 133.682C48.7933 132.553 46.8074 131.593 44.8711 130.517C44.8747 130.478 44.8864 130.401 44.9674 130.361C48.4842 129.126 51.5835 127.312 54.5178 125.193C57.9351 122.725 61.0654 119.912 64.3086 117.093C64.4559 117.036 64.516 117.017 64.6715 117.006C65.2518 116.954 65.7353 116.861 66.2218 116.841C69.0549 116.729 71.8453 116.315 74.599 115.658C76.1376 115.291 77.6708 114.896 79.1912 114.461C79.6323 114.334 80.1796 114.246 80.3344 113.661Z" fill="#258F61"/>
<path d="M78.0423 162.933C73.4156 161.623 69.1034 159.604 64.9902 157.139C64.6327 156.924 64.2781 156.705 63.8566 156.407C63.791 156.326 63.7932 156.263 63.9001 156.27C64.3479 156.275 64.6955 156.315 65.0287 156.263C68.7045 155.689 72.2875 154.78 75.5975 153.034C77.7708 151.888 79.8934 150.645 82.0223 149.417C82.8347 148.948 83.6015 148.401 84.4662 147.876C84.6995 147.852 84.8558 147.843 85.1228 147.853C87.4633 147.801 89.6986 147.804 91.9216 147.64C95.5048 147.375 99.0636 146.885 102.482 145.719C104.123 145.159 105.717 144.462 107.421 143.81C107.632 143.777 107.753 143.762 107.937 143.807C108.441 143.976 108.877 144.106 109.322 144.188C112.836 144.837 116.127 146.123 119.106 148.046C122.64 150.327 126.038 152.82 129.486 155.235C129.647 155.348 129.713 155.595 129.824 155.78C128.177 156.781 126.54 157.797 124.88 158.776C124.195 159.18 123.462 159.503 122.617 159.903C122.366 159.947 122.248 159.952 122.08 159.89C120.22 158.874 118.451 157.835 116.592 156.996C112.352 155.082 107.826 154.4 103.219 154.267C100.685 154.194 98.1649 154.497 95.6509 154.882C91.0739 155.582 86.8816 157.218 83.0407 159.778C81.4951 160.808 79.9694 161.868 78.3689 162.917C78.2162 162.924 78.1292 162.929 78.0423 162.933Z" fill="#686832"/>
<path d="M61.9567 25.8023C62.1269 25.7811 62.2211 25.7912 62.4377 25.8631C65.1526 27.7746 67.7325 29.6425 70.3409 31.4695C73.4793 33.6678 76.6527 35.8137 80.1254 37.4698C81.5573 38.1527 82.9876 38.8388 84.3706 39.587C81.5713 41.0447 78.8185 42.4355 76.0707 43.836C75.6724 44.0391 75.2979 44.2887 74.9 44.5158C74.8876 44.515 74.8774 44.4923 74.8321 44.5235C74.6866 44.5883 74.5864 44.6218 74.3847 44.6759C74.0764 44.7103 73.8697 44.7241 73.5561 44.7361C69.6969 44.6639 65.9447 44.5756 62.1921 44.5291C59.305 44.4933 56.4659 44.0311 53.64 43.5385C48.5882 42.6578 43.7332 41.0648 38.9423 39.2586C36.002 38.15 33.0309 37.1229 30.0685 36.0134C30.0633 35.9676 30.0566 35.8756 30.0566 35.8756C36.3173 35.1725 42.4617 33.9305 48.4481 31.9427C53.1439 30.3833 57.5908 28.2818 61.9567 25.8023Z" fill="#F4A01D"/>
<path d="M84.4196 39.5231C82.9886 38.8385 81.5582 38.1524 80.1264 37.4696C76.6537 35.8134 73.4803 33.6675 70.3419 31.4693C67.7334 29.6422 65.1535 27.7744 62.5098 25.8668C63.3955 25.1902 64.3186 24.5492 65.272 23.9569C68.2228 22.1239 71.1846 20.3086 74.1432 18.4883C75.5582 17.6177 76.9757 16.7513 78.5205 15.8379C81.212 17.0153 83.7445 18.3078 86.3461 19.4422C89.4148 20.7803 92.6561 21.5475 95.9785 21.9621C97.241 25.4954 97.9592 29.147 98.2951 33.0363C97.8326 33.3884 97.4266 33.5812 97.0139 33.7581C94.3843 34.8857 91.7346 35.9686 89.1298 37.1506C87.5905 37.8491 86.1216 38.7024 84.5719 39.5018C84.5227 39.5176 84.4196 39.5231 84.4196 39.5231Z" fill="#B33904"/>
<path d="M290.719 119.22C290.706 114.671 290.711 110.225 290.697 105.779C290.695 105.178 290.637 104.571 290.54 103.977C290.279 102.398 289.405 101.444 287.816 101.174C286.469 100.945 285.103 100.931 283.748 101.277C282.461 101.606 281.721 102.443 281.44 103.681C281.283 104.376 281.209 105.103 281.205 105.817C281.184 110.035 281.197 114.253 281.193 118.471C281.192 118.85 281.183 119.232 281.131 119.606C281.057 120.137 280.753 120.54 280.234 120.679C279.193 120.958 278.14 120.929 277.094 120.666C276.642 120.552 276.367 120.248 276.283 119.805C276.213 119.437 276.175 119.057 276.174 118.683C276.167 114.046 276.165 109.41 276.172 104.774C276.175 103.113 276.575 101.545 277.399 100.1C278.484 98.1969 280.204 97.1569 282.279 96.6653C284.521 96.1337 286.777 96.072 289.037 96.6067C290.784 97.0202 292.123 98.0068 293.13 99.4586C293.223 99.4346 293.328 99.4399 293.359 99.3945C294.78 97.2996 296.862 96.4891 299.285 96.3099C300.922 96.1889 302.528 96.3048 304.139 96.6534C308.074 97.5045 310.025 100.483 310.154 104.068C310.324 108.77 310.286 113.479 310.338 118.185C310.338 118.223 310.339 118.261 310.337 118.299C310.255 120.421 309.453 121.113 307.328 120.884C307.028 120.852 306.733 120.777 306.434 120.737C305.789 120.652 305.396 120.302 305.299 119.655C305.238 119.246 305.166 118.834 305.165 118.423C305.156 114.167 305.166 109.911 305.152 105.655C305.15 105.052 305.088 104.443 304.992 103.848C304.741 102.305 303.753 101.363 302.274 101.184C301.014 101.032 299.703 101.121 298.435 101.274C296.872 101.463 296.08 102.567 295.812 104.03C295.656 104.881 295.591 105.759 295.586 106.625C295.563 110.653 295.577 114.682 295.574 118.71C295.574 119.051 295.581 119.397 295.528 119.732C295.457 120.171 295.21 120.509 294.764 120.64C293.724 120.945 292.67 120.942 291.635 120.652C291.002 120.474 290.817 119.913 290.719 119.22Z" fill="#9E1927"/>
<path d="M122.131 159.956C122.249 159.952 122.367 159.947 122.543 159.945C128.738 164.441 135.521 165.603 142.956 163.815C145.237 167.323 146.916 171.111 148.358 175.146C147.863 175.275 147.436 175.388 147.009 175.498C143.117 176.501 139.163 176.732 135.16 176.57C131.147 176.407 127.253 175.705 123.502 174.276C120.937 173.299 118.562 171.95 116.256 170.47C114.436 169.301 112.604 168.149 110.751 167.032C109.212 166.104 107.528 165.521 105.69 165.082C105.608 165.014 105.618 164.938 105.715 164.939C106.002 164.936 106.197 164.962 106.38 164.925C109.983 164.208 113.591 163.496 117.03 162.165C118.757 161.497 120.432 160.697 122.131 159.956Z" fill="#BB5A29"/>
<path d="M85.0127 147.833C84.8564 147.843 84.7001 147.852 84.3657 147.858C81.5362 147.703 78.9143 147.384 76.3223 146.759C73.6942 146.126 71.1932 145.149 68.6753 144.148C68.6692 144.106 68.6621 144.023 68.6621 144.023C72.1389 142.692 75.169 140.603 78.1423 138.423C80.9897 136.336 83.8178 134.219 86.9657 132.589C87.9414 132.084 88.9444 131.627 89.9565 131.199C90.191 131.1 90.5656 131.116 90.7885 131.238C93.299 132.614 96.0519 133.38 98.6988 134.41C103.646 136.335 108.601 138.241 113.539 140.267C113.339 140.51 113.16 140.652 112.964 140.767C111.269 141.763 109.571 142.754 107.874 143.746C107.753 143.762 107.632 143.777 107.326 143.797C104.915 143.693 102.691 143.533 100.464 143.487C96.4454 143.403 92.571 144.16 88.893 145.783C87.5579 146.372 86.3037 147.145 85.0127 147.833Z" fill="#F15B22"/>
<path d="M10.9309 51.3517C10.3927 48.7697 9.77139 46.2012 9.34401 43.601C9.03322 41.7101 8.97867 39.7772 8.92578 37.7624C9.41338 37.7308 9.78251 37.822 10.1572 37.8656C14.4282 38.362 18.5589 39.4552 22.6361 40.7798C27.0853 42.2253 31.3069 44.2234 35.5643 46.1292C39.6518 47.9589 43.7378 49.7814 48.0584 51.0127C48.3595 51.0984 48.7792 51.1002 48.7241 51.6093C47.7744 52.1496 46.9007 52.662 45.9446 53.1834C45.6008 53.2797 45.3395 53.3669 44.9892 53.4651C43.6634 53.6043 42.4286 53.7592 41.1892 53.8559C37.4568 54.1473 33.7213 54.39 29.9739 54.2757C29.183 54.2515 28.3944 54.1597 27.6037 54.123C25.7548 54.037 23.9053 53.9657 21.9691 53.8869C21.4363 53.7975 20.9903 53.7096 20.4864 53.5604C17.4036 52.1606 14.2492 51.3944 10.9309 51.3517Z" fill="#F4A01D"/>
<path d="M48.8011 51.5817C48.7803 51.1004 48.3606 51.0987 48.0596 51.0129C43.7389 49.7816 39.653 47.9592 35.5655 46.1295C31.308 44.2237 27.0865 42.2255 22.6372 40.78C18.5601 39.4554 14.4294 38.3623 10.1583 37.8658C9.78367 37.8223 9.41454 37.731 8.94761 37.6578C8.83797 37.2649 8.82355 36.8762 8.9306 36.3914C9.80133 36.3693 10.5492 36.4646 11.3002 36.5124C12.731 36.6032 14.1636 36.6686 15.5957 36.7403C15.8225 36.7516 16.0508 36.7472 16.278 36.7383C18.0893 36.6674 19.9002 36.5856 21.7118 36.5245C22.5451 36.4964 23.3928 36.5991 24.2111 36.4822C26.1586 36.204 28.1063 36.0151 30.0742 36.0591C33.0315 37.1228 36.0025 38.15 38.9429 39.2585C43.7338 41.0647 48.5887 42.6577 53.6405 43.5384C56.4664 44.0311 59.3055 44.4932 62.1926 44.529C65.9453 44.5755 69.6974 44.6639 73.5198 44.8069C72.0752 45.5863 70.559 46.2898 69.0471 47.0025C68.7511 47.1421 68.4719 47.3173 68.1269 47.5343C67.509 47.5522 66.9494 47.4816 66.3891 47.4765C63.4288 47.4496 60.508 47.8613 57.6236 48.4561C54.5491 49.09 51.5674 50.0481 48.8011 51.5817Z" fill="#F44303"/>
<path d="M122.081 159.89C120.432 160.697 118.757 161.497 117.03 162.166C113.592 163.497 109.983 164.209 106.38 164.926C106.197 164.962 106.002 164.937 105.618 164.935C104.482 164.845 103.542 164.727 102.598 164.685C100.933 164.609 99.2568 164.454 97.6023 164.571C96.3074 164.662 95.0378 165.113 93.757 165.404C93.6639 165.419 93.5708 165.434 93.304 165.429C92.378 165.342 91.6254 165.278 90.8735 165.207C88.0884 164.946 85.2985 164.708 82.5742 164.03C81.1881 163.684 79.8147 163.288 78.4355 162.914C79.9703 161.868 81.4959 160.808 83.0415 159.778C86.8824 157.218 91.0747 155.582 95.6518 154.882C98.1657 154.497 100.686 154.194 103.22 154.267C107.827 154.4 112.352 155.082 116.593 156.996C118.452 157.835 120.221 158.875 122.081 159.89Z" fill="#4D2508"/>
<path d="M380.325 116.114C382.887 116.787 385.376 116.615 387.862 116.26C388.76 116.132 389.64 115.888 390.533 115.718C391.766 115.484 392.234 115.815 392.31 117.085C392.496 120.161 392.098 120.174 389.755 120.711C385.856 121.606 381.953 121.692 378.073 120.533C374.265 119.395 372.5 116.468 372.214 112.838C372.057 110.838 372.005 108.82 372.071 106.815C372.119 105.391 372.308 103.94 372.673 102.564C373.464 99.5779 375.448 97.6658 378.426 96.8295C381.144 96.0661 383.89 96.0252 386.633 96.6942C390.533 97.6454 392.652 100.479 393.021 104.331C393.157 105.749 393.094 107.195 393.027 108.623C392.954 110.179 392.35 110.689 390.647 110.696C386.616 110.714 382.584 110.702 378.553 110.702C378.144 110.702 377.736 110.702 377.351 110.702C376.872 113.209 377.76 115.397 380.325 116.114ZM379.631 101.238C377.604 102.272 376.82 104.082 377.378 106.441C379.337 106.636 387.545 106.564 388.402 106.33C388.402 106.005 388.429 105.663 388.398 105.327C388.181 102.941 387.412 101.587 385.141 100.964C383.356 100.474 381.55 100.497 379.631 101.238Z" fill="#9E1926"/>
<path d="M78.369 162.917C79.814 163.288 81.1873 163.684 82.5735 164.029C85.2978 164.708 88.0876 164.946 90.8727 165.207C91.6246 165.278 92.3772 165.341 93.2324 165.43C89.6328 166.76 86.3596 168.93 82.8653 170.657C79.3663 172.385 75.6744 173.475 71.7859 173.846C70.4681 173.972 69.1391 174.041 67.8156 174.036C59.9294 174.008 52.8062 171.791 46.675 166.682C44.6934 165.03 42.6069 163.513 40.2894 162.335C37.5542 160.944 34.6478 160.146 31.6305 159.693C31.2703 159.639 30.9149 159.553 30.3125 159.433C36.2366 158.786 41.0871 159.443 46.3017 161.922C48.6317 163.03 50.9243 164.219 53.2775 165.275C55.9594 166.478 58.7699 167.159 61.7365 167.298C65.094 167.455 68.3885 167.201 71.6159 166.281C73.932 165.621 76.0639 164.557 78.0089 163.004C78.1293 162.929 78.2163 162.924 78.369 162.917Z" fill="#BB5A29"/>
<path d="M244.86 121.349C243.189 121.377 241.663 121.173 240.145 120.791C236.483 119.869 234.341 117.28 233.919 113.659C233.645 111.299 233.681 108.895 233.701 106.512C233.712 105.276 233.868 104.011 234.17 102.812C234.875 100.009 236.622 98.0483 239.384 97.1152C243.016 95.8882 246.687 95.8833 250.316 97.1092C253.329 98.1272 254.97 100.385 255.577 103.426C255.762 104.347 255.824 105.303 255.845 106.245C255.885 108.067 255.87 109.892 255.853 111.715C255.836 113.564 255.434 115.328 254.499 116.935C253.031 119.458 250.68 120.647 247.909 121.112C246.943 121.273 245.95 121.274 244.86 121.349ZM238.735 108.273C238.795 109.748 238.78 111.231 238.934 112.697C239.133 114.592 240.214 115.809 242.097 116.26C243.937 116.7 245.781 116.679 247.616 116.256C249.322 115.863 250.313 114.744 250.586 113.048C251.011 110.409 250.98 107.741 250.679 105.105C250.4 102.664 249.361 101.615 247.062 101.203C245.337 100.893 243.576 100.881 241.864 101.357C240.404 101.762 239.465 102.698 239.068 104.211C238.735 105.481 238.73 106.759 238.735 108.273Z" fill="#9E1926"/>
<path d="M326.299 100.839C323.82 100.424 321.443 100.597 319.084 100.991C317.106 101.32 316.799 101.107 316.8 99.1018C316.8 98.9118 316.793 98.7214 316.802 98.5318C316.853 97.406 317.207 96.9283 318.295 96.7166C320.499 96.2879 322.728 96.1652 324.971 96.2957C326.64 96.3928 328.286 96.6091 329.864 97.2052C332.765 98.3012 334.296 100.364 334.363 103.648C334.435 107.143 334.415 110.641 334.366 114.137C334.338 116.091 333.816 117.923 332.215 119.203C331.489 119.783 330.642 120.332 329.762 120.581C326.042 121.634 322.285 121.779 318.577 120.507C315.895 119.587 314.448 117.627 314.253 114.818C314.182 113.81 314.272 112.769 314.446 111.77C314.81 109.692 316.121 108.33 318.02 107.519C319.865 106.73 321.825 106.536 323.807 106.519C325.404 106.506 327.001 106.518 328.598 106.514C328.818 106.513 329.037 106.48 329.306 106.457C329.306 105.458 329.384 104.51 329.289 103.579C329.116 101.877 327.955 101.132 326.299 100.839ZM319.662 112.138C318.779 114.029 319.442 116.259 321.454 116.729C323.364 117.175 325.277 117.172 327.178 116.632C328.462 116.266 329.173 115.383 329.272 114.099C329.364 112.905 329.292 111.698 329.292 110.486C327.012 110.486 324.779 110.409 322.555 110.519C321.472 110.572 320.379 110.924 319.662 112.138Z" fill="#9E1927"/>
<path d="M146.665 107.162C148.445 106.671 150.174 106.509 151.925 106.515C153.587 106.521 155.249 106.516 156.984 106.516C156.984 105.421 157.052 104.437 156.965 103.466C156.871 102.413 156.276 101.664 155.275 101.226C153.839 100.596 152.319 100.563 150.81 100.624C149.302 100.685 147.801 100.913 146.297 101.065C146.033 101.091 145.767 101.115 145.503 101.114C145.022 101.113 144.688 100.883 144.633 100.394C144.556 99.7209 144.468 99.0398 144.493 98.3662C144.527 97.4698 145.026 96.8655 145.936 96.7355C147.245 96.5486 148.558 96.3407 149.875 96.2833C152.613 96.1639 155.335 96.2906 157.926 97.3461C160.564 98.4205 161.944 100.438 162.016 103.221C162.114 107.018 162.084 110.82 162.026 114.618C161.982 117.415 160.424 119.585 157.767 120.461C156.379 120.918 154.899 121.199 153.442 121.314C151.481 121.469 149.499 121.409 147.563 120.927C144.692 120.212 142.606 118.687 142.057 115.583C141.768 113.95 141.827 112.338 142.422 110.778C143.158 108.844 144.696 107.813 146.665 107.162ZM156.936 114.476C157.087 113.129 157.015 111.786 156.989 110.408C154.958 110.408 153.065 110.387 151.172 110.42C150.574 110.43 149.967 110.537 149.383 110.68C147.794 111.067 146.939 112.16 146.983 113.805C147.033 115.699 147.938 116.47 149.497 116.812C151.144 117.173 152.805 117.112 154.448 116.763C155.63 116.512 156.542 115.902 156.936 114.476Z" fill="#9E1927"/>
<path d="M187.711 103.73C187.772 108.692 187.828 113.555 187.825 118.418C187.823 120.797 187.269 120.645 185.314 120.873C184.803 120.933 184.258 120.8 183.744 120.687C183.216 120.57 182.896 120.186 182.819 119.652C182.759 119.24 182.739 118.82 182.739 118.404C182.733 114.185 182.74 109.967 182.729 105.748C182.728 105.299 182.64 104.85 182.6 104.4C182.426 102.479 181.259 101.474 179.463 101.191C177.887 100.943 176.284 100.887 174.711 101.274C172.949 101.707 172.126 102.616 171.875 104.4C171.796 104.961 171.787 105.535 171.786 106.104C171.778 110.208 171.782 114.313 171.781 118.417C171.781 118.759 171.804 119.107 171.751 119.441C171.613 120.303 171.308 120.643 170.426 120.722C169.61 120.794 168.775 120.791 167.959 120.712C167.145 120.633 166.869 120.273 166.775 119.437C166.749 119.212 166.758 118.982 166.758 118.754C166.757 114.118 166.742 109.481 166.763 104.845C166.774 102.434 167.511 100.292 169.326 98.6164C170.442 97.5852 171.792 97.0257 173.265 96.6947C176.325 96.0071 179.367 96.0504 182.366 96.9482C185.505 97.8877 187.149 100.121 187.613 103.299C187.629 103.411 187.659 103.521 187.711 103.73Z" fill="#9E1926"/>
<path d="M1.4375 138.94C2.97652 138.317 4.5028 137.66 6.05718 137.077C9.35247 135.843 12.6624 134.647 16.1536 133.438C17.2832 133.523 18.2271 133.588 19.1674 133.688C22.48 134.042 25.6485 134.974 28.6136 136.444C31.1227 137.689 33.5251 139.156 35.9345 140.592C39.2331 142.558 42.556 144.453 46.3272 145.387C48.0166 145.806 49.7078 146.217 51.5519 146.237C51.7558 146.249 51.872 146.254 51.9933 146.337C52.6059 147.122 53.2135 147.829 53.8187 148.589C53.8163 148.64 53.8067 148.743 53.7214 148.768C48.9187 150.16 44.0734 150.71 39.1961 151.058C39.1487 151.048 39.1014 151.037 38.9505 150.938C38.2403 150.463 37.6194 150.096 37.0296 149.685C34.0121 147.58 31.0457 145.4 27.9759 143.375C25.7255 141.891 23.2576 140.813 20.6633 140.012C18.1503 139.237 15.5815 138.8 12.9818 138.538C11.3625 138.376 9.72491 138.281 8.09977 138.322C6.43882 138.364 4.78292 138.609 3.12506 138.767C2.56215 138.821 2 138.882 1.4375 138.94Z" fill="#23340E"/>
<path d="M219.42 120.84C217.79 120.585 217.509 120.261 217.508 118.652C217.504 113.408 217.507 108.164 217.507 102.92C217.507 102.505 217.507 102.089 217.507 101.516C216.651 101.511 215.833 101.508 215.015 101.502C213.627 101.49 213.357 101.223 213.323 99.8398C213.321 99.7639 213.323 99.6878 213.323 99.6118C213.315 97.8468 213.573 97.5414 215.334 97.2075C216.036 97.0746 216.734 96.9262 217.507 96.7701C217.507 95.8022 217.453 94.8912 217.52 93.9891C217.604 92.8622 217.692 91.7201 217.949 90.6248C218.432 88.5678 219.705 87.1107 221.71 86.3899C223.62 85.7034 225.592 85.4131 227.626 85.724C228.447 85.8496 229.29 85.8751 230.091 86.0738C231.131 86.3314 231.39 86.7204 231.429 87.7674C231.451 88.3743 231.462 88.9854 231.418 89.5903C231.36 90.381 231.136 90.6134 230.355 90.6147C229.37 90.6163 228.373 90.6179 227.403 90.4723C226.469 90.3319 225.598 90.4841 224.722 90.7161C223.332 91.084 222.639 92.0623 222.548 93.4402C222.479 94.4943 222.535 95.5567 222.535 96.6908C222.881 96.725 223.168 96.7769 223.456 96.7781C225.243 96.7857 227.03 96.7813 228.817 96.7826C229.083 96.7828 229.353 96.7646 229.614 96.8013C230.616 96.9421 230.917 97.2652 230.97 98.2895C230.999 98.8579 231 99.4305 230.969 99.9987C230.909 101.107 230.523 101.486 229.405 101.497C227.542 101.515 225.679 101.502 223.816 101.502C223.439 101.502 223.061 101.502 222.532 101.502C222.532 101.968 222.532 102.372 222.532 102.775C222.532 107.981 222.533 113.186 222.529 118.392C222.529 118.809 222.527 119.231 222.458 119.64C222.362 120.211 222.02 120.624 221.427 120.709C220.793 120.799 220.15 120.819 219.42 120.84Z" fill="#9E1927"/>
<path d="M192.637 103.933C192.693 102.852 192.649 101.849 192.846 100.897C193.206 99.1469 194.301 97.9181 195.946 97.2159C198.165 96.2682 200.523 96.1428 202.876 96.2838C204.452 96.3783 206.014 96.738 207.578 96.9983C207.873 97.0473 208.162 97.1666 208.436 97.2918C208.675 97.4014 208.92 97.533 209.111 97.7106C209.67 98.2318 209.746 101.117 209.177 101.613C208.962 101.801 208.562 101.881 208.263 101.849C207.665 101.784 207.078 101.609 206.486 101.478C204.256 100.982 202.008 100.783 199.734 101.105C199.4 101.152 199.058 101.223 198.748 101.35C197.41 101.899 197.175 103.439 198.312 104.357C198.747 104.708 199.268 104.971 199.782 105.202C202.063 106.229 204.369 107.204 206.638 108.257C207.352 108.588 208.026 109.049 208.638 109.548C210.287 110.893 210.69 112.769 210.647 114.766C210.609 116.525 210.114 118.117 208.734 119.35C207.944 120.057 207.025 120.465 206.029 120.735C203.547 121.409 201.024 121.537 198.482 121.209C197.059 121.025 195.631 120.829 194.232 120.517C192.381 120.104 192.341 119.669 192.176 117.908C192.149 117.611 192.193 117.302 192.244 117.006C192.477 115.657 192.807 115.44 194.164 115.705C195.463 115.959 196.753 116.324 198.064 116.43C199.835 116.573 201.622 116.524 203.402 116.537C203.659 116.538 203.923 116.441 204.173 116.358C204.879 116.124 205.524 115.826 205.629 114.955C205.734 114.075 205.447 113.349 204.685 112.917C203.698 112.356 202.673 111.861 201.644 111.381C199.857 110.547 198.038 109.782 196.266 108.922C194.87 108.244 193.698 107.277 193.102 105.787C192.879 105.231 192.793 104.62 192.637 103.933Z" fill="#9E1927"/>
<path d="M345.139 116.555C346.837 116.642 348.428 116.763 350.006 116.411C350.817 116.23 351.571 115.971 351.716 115.008C351.869 113.989 351.451 113.214 350.547 112.754C349.297 112.119 348.027 111.523 346.754 110.935C345.343 110.282 343.882 109.728 342.516 108.995C341.627 108.519 340.812 107.861 340.068 107.172C339.131 106.304 338.838 105.085 338.742 103.867C338.675 103.009 338.752 102.125 338.879 101.269C339.215 98.9981 340.628 97.6498 342.746 96.9479C344.797 96.2683 346.922 96.1365 349.044 96.2845C350.62 96.3946 352.2 96.6662 353.741 97.0267C355.401 97.415 355.607 97.7974 355.609 99.4969C355.609 99.9528 355.643 100.413 355.596 100.864C355.514 101.663 355.086 101.98 354.287 101.846C353.728 101.752 353.177 101.608 352.622 101.487C350.392 100.999 348.147 100.776 345.871 101.093C345.795 101.103 345.719 101.105 345.644 101.118C344.535 101.303 343.854 101.841 343.739 102.621C343.603 103.534 344 104.296 345.043 104.782C347.173 105.774 349.335 106.696 351.482 107.654C352.73 108.211 353.957 108.791 354.968 109.757C356.442 111.164 356.802 112.956 356.734 114.858C356.619 118.061 355.039 119.982 351.921 120.791C349.511 121.417 347.058 121.529 344.593 121.212C343.17 121.028 341.734 120.861 340.346 120.516C338.498 120.057 338.157 119.586 338.278 117.702C338.393 115.9 338.34 115.299 340.671 115.818C342.108 116.138 343.577 116.314 345.139 116.555Z" fill="#9E1927"/>
<path d="M108.624 110.662C108.624 105.161 108.624 99.7734 108.624 94.277C108.136 94.277 107.765 94.277 107.395 94.277C105.454 94.277 103.514 94.2823 101.574 94.2731C101.119 94.2709 100.66 94.2477 100.211 94.1838C99.5803 94.0941 99.1297 93.713 99.0738 93.0828C99.0003 92.2565 98.9721 91.4113 99.0628 90.5895C99.1506 89.7942 99.5551 89.5066 100.372 89.4241C100.673 89.3937 100.98 89.4077 101.284 89.4077C107.942 89.407 114.599 89.4069 121.256 89.4078C121.56 89.4079 121.868 89.3902 122.168 89.4287C123.039 89.5404 123.376 89.8478 123.449 90.739C123.51 91.4807 123.515 92.2377 123.438 92.9768C123.355 93.7736 122.995 94.0804 122.176 94.1945C121.726 94.2571 121.267 94.2716 120.812 94.2736C118.91 94.2818 117.008 94.277 115.105 94.277C114.736 94.277 114.366 94.277 113.877 94.277C113.877 94.8036 113.877 95.2111 113.877 95.6186C113.877 103.222 113.878 110.826 113.874 118.43C113.874 118.847 113.871 119.271 113.794 119.677C113.687 120.247 113.329 120.675 112.733 120.71C111.798 120.764 110.856 120.774 109.921 120.72C109.304 120.684 108.859 120.328 108.782 119.651C108.727 119.164 108.634 118.677 108.631 118.19C108.616 115.719 108.624 113.248 108.624 110.662Z" fill="#9E1926"/>
<path d="M40.5684 96.9768C42.4178 95.7946 44.226 94.5408 46.1261 93.4466C49.2138 91.6685 52.3188 89.9106 55.4937 88.2959C60.9143 85.539 66.6082 83.4779 72.476 81.8695C76.2046 80.8476 79.9794 80.0624 83.7908 79.4709C86.1786 79.1003 88.6008 78.9489 91.0092 78.7152C92.0635 78.6129 93.1217 78.5508 94.3836 78.4758C95.6222 78.4227 96.6553 78.3642 97.6884 78.3057C96.8959 80.4022 95.9657 82.4313 94.5756 84.2069C94.1861 84.7044 93.6545 85.0907 93.1111 85.5486C91.6223 85.2348 90.2146 84.8813 88.7966 84.5757C88.2546 84.4589 87.689 84.4516 86.9602 84.3368C86.0761 84.1809 85.3668 84.0046 84.656 83.9983C81.7052 83.9722 78.7648 83.9037 75.8159 84.3637C72.1473 84.9361 68.8475 86.3464 65.6695 88.1608C62.643 89.8886 59.6601 91.704 56.5588 93.2867C51.5557 95.84 46.1967 97.0369 40.5684 96.9768Z" fill="#3D0906"/>
<path d="M1.35934 138.928C2.00061 138.882 2.56276 138.82 3.12567 138.767C4.78353 138.608 6.43943 138.364 8.10038 138.322C9.72552 138.281 11.3631 138.375 12.9824 138.538C15.5821 138.8 18.1509 139.236 20.6639 140.012C23.2582 140.813 25.7261 141.891 27.9765 143.375C31.0463 145.399 34.0127 147.58 37.0303 149.684C37.6201 150.096 38.2409 150.462 38.8842 150.91C35.4722 151.004 32.0395 150.836 28.605 150.46C25.6566 150.138 22.7715 149.567 19.9055 148.849C14.5998 147.519 9.65962 145.327 5.00366 142.485C3.77478 141.734 2.60672 140.884 1.41841 140.068C1.11471 139.86 0.840337 139.609 0.474609 139.314C0.816259 139.146 1.04841 139.031 1.35934 138.928Z" fill="#258F61"/>
<path d="M100.266 60.9879C100.384 61.3606 100.501 61.7333 100.601 62.2773C100.577 63.0681 100.074 63.1051 99.6527 63.2531C97.6872 63.9435 95.7966 64.814 94.0793 65.9847C91.4984 67.744 88.9825 69.5986 86.3602 71.407C85.7902 71.0542 85.2901 70.7188 84.809 70.358C81.1812 67.6369 77.3658 65.2642 72.9556 64.0058C72.0378 63.7439 71.1031 63.5408 70.0176 63.2713C70.5329 62.8979 70.9488 62.6431 71.3089 62.3251C71.8863 61.8152 72.6974 61.544 73.052 60.6985C73.4518 60.5236 73.7791 60.3765 74.1985 60.2339C76.2565 59.8655 78.2086 59.3619 80.1917 59.1539C82.4456 58.9175 84.727 58.9402 86.9968 58.8592C90.2364 58.7436 93.4095 59.2127 96.5433 59.9867C97.7905 60.2949 99.0255 60.6527 100.266 60.9879Z" fill="#450A02"/>
<path d="M31.8811 110.307C32.3614 110.361 32.8534 110.457 33.2757 110.683C36.0185 112.151 38.8821 113.346 41.854 114.233C44.7051 115.084 47.5966 115.816 50.5695 116.15C51.3133 116.234 52.0504 116.378 52.8025 116.633C49.7608 118.298 46.7258 119.864 43.649 121.344C39.7548 123.216 35.8051 124.965 31.5799 126.227C31.2626 126.3 31.0192 126.356 30.7117 126.35C30.142 126.18 29.6364 126.072 29.1309 125.964C29.6062 125.153 30.1041 124.354 30.5518 123.528C31.3557 122.046 31.7162 120.424 31.9144 118.769C32.2253 116.173 32.1281 113.573 31.8788 110.977C31.8608 110.789 31.8661 110.599 31.8811 110.307Z" fill="#94151E"/>
<path d="M25.3414 75.5922C25.0923 75.5697 24.8432 75.5471 24.4384 75.4671C22.7594 74.7466 21.189 74.1723 19.724 73.3988C17.7541 72.3587 15.8901 71.1196 13.9349 70.0495C11.9164 68.9446 9.84296 67.9398 7.79357 66.8912C7.73498 66.2195 7.67639 65.5478 7.60352 64.7123C10.7052 65.2699 13.6794 65.8072 16.6976 65.6698C19.6831 65.5339 22.6701 65.3299 25.7481 64.5875C25.9959 64.5773 26.0842 64.5794 26.2085 64.6491C28.1762 66.593 30.0935 68.4843 32.0457 70.3389C33.0297 71.2737 34.0771 72.1419 35.0397 73.0982C31.8976 74.4744 28.6766 75.2589 25.3414 75.5922Z" fill="#E8433F"/>
<path d="M82.5014 13.4425C79.7231 10.8658 76.9562 8.27651 74.1629 5.7161C71.8138 3.56287 69.3925 1.49747 66.5873 -0.061835C66.4892 -0.116367 66.3971 -0.181571 66.3926 -0.438477C67.687 -0.134704 68.9891 0.140357 70.2747 0.477783C75.9056 1.95573 81.158 4.26026 85.7955 7.81908C89.9568 11.0124 93.2985 14.8782 95.2376 19.83C95.3065 20.0058 95.3554 20.1894 95.3039 20.4762C91.7068 19.4526 88.5118 17.7462 85.5177 15.6521C84.4966 14.9379 83.506 14.1803 82.5014 13.4425Z" fill="#258F61"/>
<path d="M136.261 101.046C136.079 101.046 136.003 101.041 135.927 101.047C133.661 101.235 132.743 102.137 132.555 104.397C132.508 104.963 132.523 105.536 132.523 106.105C132.52 110.248 132.525 114.39 132.515 118.532C132.514 118.943 132.459 119.359 132.378 119.763C132.259 120.355 131.862 120.707 131.264 120.726C130.367 120.754 129.462 120.777 128.57 120.695C127.889 120.632 127.6 120.244 127.513 119.55C127.48 119.288 127.497 119.019 127.497 118.753C127.496 113.85 127.481 108.948 127.511 104.045C127.517 103.222 127.638 102.377 127.853 101.582C128.546 99.0192 130.243 97.4324 132.792 96.7333C134.458 96.2766 136.151 96.1101 137.863 96.3388C139.238 96.5226 139.611 96.9748 139.668 98.3583C139.687 98.8133 139.692 99.2724 139.653 99.7254C139.551 100.937 139.273 101.17 138.074 101.118C137.505 101.094 136.937 101.07 136.261 101.046Z" fill="#9E1927"/>
<path d="M262.292 98.8909C264.183 96.8228 266.608 96.3379 269.163 96.2676C269.985 96.2449 270.818 96.3859 271.638 96.5108C272.229 96.601 272.597 97.0462 272.641 97.6067C272.71 98.4708 272.722 99.3503 272.639 100.212C272.573 100.898 272.264 101.105 271.557 101.113C270.837 101.12 270.116 101.048 269.396 101.05C266.788 101.059 265.657 102.165 265.603 104.783C265.573 106.225 265.597 107.669 265.597 109.111C265.597 112.187 265.598 115.262 265.597 118.337C265.597 118.641 265.619 118.948 265.58 119.247C265.444 120.292 265.164 120.615 264.076 120.728C263.301 120.808 262.503 120.791 261.727 120.708C260.932 120.623 260.646 120.237 260.58 119.406C260.558 119.142 260.572 118.875 260.572 118.609C260.572 113.787 260.583 108.966 260.566 104.144C260.56 102.222 261.05 100.48 262.292 98.8909Z" fill="#9E1927"/>
<path d="M51.4642 146.229C49.7077 146.217 48.0165 145.805 46.3271 145.387C42.5559 144.453 39.233 142.558 35.9344 140.592C33.525 139.156 31.1226 137.689 28.6135 136.444C25.6484 134.973 22.48 134.042 19.1673 133.688C18.227 133.588 17.2831 133.523 16.2402 133.419C17.3871 132.648 18.6847 132.527 20.1253 132.809C23.1798 133.408 26.2869 133.356 29.3813 133.239C31.1101 133.173 32.8333 132.957 34.7273 132.797C35.0277 132.79 35.1598 132.795 35.3395 132.862C36.8776 133.902 38.4069 134.827 39.8503 135.871C42.9928 138.143 45.8574 140.745 48.6253 143.455C49.5707 144.38 50.5178 145.304 51.4642 146.229Z" fill="#258F61"/>
<path d="M107.938 143.807C109.571 142.754 111.269 141.763 112.964 140.767C113.16 140.652 113.339 140.51 113.59 140.331C117.647 141.881 121.427 143.895 125.084 146.147C128.229 148.083 131.16 150.304 133.897 152.93C133.585 153.315 133.272 153.585 132.934 153.82C132.037 154.445 131.129 155.054 130.225 155.67C130.137 155.7 130.049 155.73 129.893 155.77C129.714 155.596 129.647 155.348 129.486 155.235C126.039 152.82 122.641 150.327 119.106 148.046C116.127 146.123 112.836 144.837 109.323 144.188C108.878 144.106 108.441 143.976 107.938 143.807Z" fill="#632606"/>
<path d="M86.4395 71.4128C88.983 69.5987 91.4989 67.7441 94.0798 65.9847C95.7971 64.8141 97.6877 63.9436 99.6532 63.2532C100.075 63.1052 100.577 63.0682 100.597 62.3623C101.006 63.6468 100.852 65.0368 100.704 66.4144C100.297 70.1826 99.319 73.8183 98.0669 77.3864C97.9639 77.6798 97.9069 77.9893 97.758 78.2985C96.6543 78.3642 95.6212 78.4227 94.4843 78.4674C94.7378 78.0774 95.0949 77.7011 95.5497 77.222C92.3207 75.6851 89.4385 73.7032 86.5135 71.5927C86.4444 71.5054 86.4395 71.4128 86.4395 71.4128Z" fill="#601C0D"/>
<path d="M366.948 102.222C366.948 107.694 366.948 113.053 366.947 118.411C366.947 118.753 366.97 119.1 366.917 119.435C366.782 120.299 366.476 120.648 365.599 120.721C364.745 120.792 363.873 120.782 363.019 120.7C362.318 120.633 362.06 120.291 361.959 119.568C361.917 119.269 361.924 118.962 361.924 118.659C361.922 112.085 361.922 105.51 361.923 98.9359C361.924 98.6324 361.904 98.3222 361.957 98.0267C362.057 97.4693 362.319 96.9924 362.95 96.9391C363.813 96.866 364.689 96.7635 365.545 96.8379C366.506 96.9213 366.91 97.4483 366.939 98.4602C366.973 99.6754 366.947 100.892 366.948 102.222Z" fill="#9E1927"/>
<path d="M98.915 40.187C99.1182 44.2303 99.0378 48.264 98.3928 52.3822C96.0048 52.9416 93.7283 53.4016 91.4515 53.8607C90.6925 54.0137 89.9328 54.1641 89.1026 54.2831C87.6819 53.4613 86.3447 52.6492 84.9741 51.8978C84.6015 51.6936 84.1283 51.6727 83.7031 51.5115C83.705 51.4553 83.7094 51.3427 83.7822 51.3161C84.1071 51.1238 84.373 50.9757 84.6093 50.79C88.6553 47.6084 93.0421 45.0554 97.9847 43.5219C98.1907 43.458 98.3849 43.3563 98.7696 43.1943C97.6456 42.9991 96.7158 42.8588 95.7955 42.672C94.809 42.4718 93.8315 42.2279 92.9357 41.9913C94.7619 41.3951 96.5006 40.805 98.2453 40.2335C98.4515 40.1659 98.691 40.2 98.915 40.187Z" fill="#BB2705"/>
<path d="M26.1724 64.5816C26.0841 64.5796 25.9958 64.5775 25.8416 64.5763C25.1013 63.8239 24.4784 63.0155 23.7423 62.3281C21.9442 60.6488 20.1654 58.9318 18.0517 57.6403C16.4059 56.6347 14.7635 55.5977 13.0218 54.7837C11.9211 54.2693 11.171 53.697 11.1918 52.4038C11.4877 52.4845 11.6973 52.6682 11.9306 52.7063C13.078 52.8936 14.2279 53.0794 15.3839 53.1958C17.1015 53.3687 18.8249 53.4828 20.5458 53.6219C20.9918 53.7098 21.4378 53.7978 22.0109 53.9537C22.6989 54.3278 23.2597 54.6341 23.8207 54.9401C27.2642 56.8185 30.582 58.8952 33.7213 61.2975C32.5421 61.9801 31.4149 62.6668 30.2124 63.1757C28.9022 63.7303 27.522 64.12 26.1724 64.5816Z" fill="#BB5A29"/>
<path d="M39.2383 151.122C44.0735 150.71 48.9189 150.16 53.8009 148.782C54.3099 148.996 54.6812 149.188 54.9937 149.451C56.2132 150.475 57.3709 151.578 58.6323 152.546C60.3131 153.836 62.0692 155.029 63.7929 156.263C63.7929 156.263 63.7907 156.326 63.7859 156.356C62.1895 156.442 60.5965 156.57 59.0065 156.539C55.2461 156.466 51.5251 156.085 47.897 154.992C44.8623 154.078 41.9866 152.83 39.2383 151.122Z" fill="#F15B22"/>
<path d="M83.7028 51.5674C84.1298 51.6724 84.603 51.6933 84.9756 51.8975C86.3462 52.6488 87.6834 53.461 89.1543 54.3425C91.4544 55.6505 93.6084 56.9143 95.8236 58.06C96.813 58.5717 97.8315 59.1408 99.022 59.1016C99.4361 59.6777 99.8502 60.2538 100.266 60.9088C99.0267 60.6524 97.7918 60.2946 96.5445 59.9865C93.4108 59.2124 90.2377 58.7434 86.998 58.859C84.7282 58.94 82.4468 58.9172 80.1929 59.1537C78.2098 59.3617 76.2577 59.8652 74.2363 60.1669C75.2727 59.1273 76.3839 58.1797 77.4504 57.1842C78.2704 56.4187 79.0341 55.593 79.8923 54.758C81.2088 53.6705 82.4558 52.6189 83.7028 51.5674Z" fill="#AA190B"/>
<path d="M36.1907 96.9222C36.4035 96.9538 36.6163 96.9855 37.0002 97.0634C37.7855 97.3263 38.3996 97.543 39.0137 97.7596C37.4202 98.7801 35.8538 99.8465 34.2261 100.809C32.235 101.987 30.1893 103.073 28.1766 104.215C27.9288 104.355 27.7384 104.597 27.5097 104.873C24.9281 101.51 22.8715 97.7819 21.4102 93.6715C21.769 93.6415 22.0285 93.7049 22.2715 93.8074C24.7982 94.8731 27.3783 95.775 30.1021 96.171C32.1252 96.4651 34.1607 96.6749 36.1907 96.9222Z" fill="#FD691B"/>
<path d="M238.172 142.623C240.217 143.047 241.495 141.713 240.978 139.706C240.175 140.364 239.289 140.683 238.256 140.596C236.595 140.454 235.319 139.435 235.133 137.67C234.959 136.022 234.917 134.316 235.144 132.681C235.521 129.97 238.321 128.927 240.602 130.509C240.694 130.573 240.801 130.617 240.962 130.702C241.079 130.475 241.19 130.258 241.298 130.049C241.94 130.049 242.577 130.049 243.306 130.049C243.306 131.025 243.306 131.966 243.306 132.906C243.306 135.413 243.322 137.921 243.301 140.428C243.284 142.373 242.392 143.802 240.739 144.325C238.871 144.916 237.069 144.785 235.542 143.371C235.435 143.272 235.383 143.113 235.258 142.9C235.698 142.484 236.153 142.053 236.585 141.644C237.143 142.002 237.61 142.301 238.172 142.623ZM238.251 138.415C238.359 138.452 238.464 138.495 238.574 138.523C240.061 138.903 241.135 138.11 241.164 136.593C241.183 135.608 241.191 134.621 241.161 133.636C241.128 132.521 240.511 131.899 239.411 131.804C238.105 131.691 237.231 132.467 237.151 133.88C237.102 134.75 237.099 135.627 237.155 136.495C237.201 137.218 237.385 137.922 238.251 138.415Z" fill="#070707"/>
<path d="M80.3252 113.554C80.1797 114.246 79.6324 114.334 79.1913 114.46C77.6709 114.896 76.1378 115.291 74.5992 115.658C71.8454 116.315 69.055 116.729 66.222 116.841C65.7355 116.861 65.252 116.954 64.7051 116.945C65.8204 115.869 66.9562 114.807 68.1833 113.864C70.9977 111.701 73.8567 109.596 76.6975 107.467C76.8617 107.405 77.0259 107.343 77.3206 107.254C77.5552 107.15 77.6593 107.073 77.7633 106.996C77.7633 106.996 77.7721 107.012 77.867 107.01C78.3997 106.953 78.8413 106.833 79.2745 106.858C79.9258 106.895 80.5348 106.393 81.1965 106.734C81.1865 106.77 81.1885 106.82 81.165 106.841C79.66 108.197 79.9903 109.951 80.1244 111.658C80.1713 112.256 80.2511 112.851 80.3252 113.554Z" fill="#23340E"/>
<path d="M98.9393 40.0873C98.6926 40.1999 98.4531 40.1659 98.2469 40.2334C96.5022 40.8049 94.7635 41.3951 92.8544 41.9916C92.5205 42.0016 92.3553 41.9996 92.103 41.9782C91.838 41.8987 91.6625 41.8296 91.4817 41.78C89.1528 41.1408 86.8089 40.5468 84.6211 39.4862C86.1216 38.7025 87.5905 37.8492 89.1298 37.1508C91.7346 35.9688 94.3843 34.8858 97.0139 33.7583C97.4266 33.5813 97.8326 33.3885 98.2906 33.1362C98.4742 34.1769 98.6368 35.2818 98.7357 36.3924C98.8422 37.5881 98.8891 38.789 98.9393 40.0873Z" fill="#BB5A29"/>
<path d="M35.2921 132.8C35.16 132.795 35.0279 132.79 34.8305 132.79C33.2583 132.025 31.7735 131.208 30.2381 130.502C28.8766 129.875 27.4589 129.37 26.0039 128.787C26.5756 128.299 27.1176 127.836 27.8227 127.341C28.9161 127.01 29.8463 126.711 30.7764 126.412C31.0199 126.356 31.2633 126.3 31.6339 126.295C32.0505 126.425 32.3356 126.533 32.6301 126.577C35.3594 126.988 37.9964 127.745 40.5759 128.707C42.022 129.246 43.4497 129.834 44.8858 130.401C44.8858 130.401 44.874 130.478 44.7893 130.52C44.4515 130.635 44.194 130.696 43.9462 130.785C41.1377 131.784 38.2709 132.532 35.2921 132.8Z" fill="#686832"/>
<path d="M30.0683 36.0135C28.1056 36.0152 26.1578 36.2041 24.2103 36.4823C23.3921 36.5992 22.5443 36.4966 21.711 36.5247C19.8994 36.5857 18.0885 36.6676 16.2772 36.7385C16.0501 36.7474 15.8218 36.7517 15.5949 36.7404C14.1628 36.6688 12.7303 36.6034 11.2994 36.5125C10.5485 36.4648 9.80058 36.3694 8.95055 36.2962C8.7714 34.8249 8.71981 33.3547 9.08553 31.8564C16.232 32.2269 23.1353 33.6242 29.9689 35.8625C30.0564 35.8757 30.063 35.9677 30.0683 36.0135Z" fill="#FD691B"/>
<path d="M300.516 126.73C300.531 126.363 300.547 126.101 300.564 125.808C303.581 125.808 306.563 125.808 309.6 125.808C309.6 126.456 309.6 127.051 309.6 127.752C307.323 127.752 305.029 127.752 302.658 127.752C302.658 129.311 302.658 130.766 302.658 132.281C304.605 132.281 306.534 132.281 308.526 132.281C308.526 132.964 308.526 133.59 308.526 134.329C306.578 134.329 304.63 134.329 302.613 134.329C302.613 136.362 302.613 138.286 302.613 140.285C301.916 140.285 301.288 140.285 300.516 140.285C300.516 135.836 300.516 131.335 300.516 126.73Z" fill="#070707"/>
<path d="M7.7793 66.9795C9.84286 67.9402 11.9163 68.945 13.9348 70.0498C15.89 71.12 17.754 72.359 19.7239 73.3992C21.1889 74.1727 22.7593 74.747 24.3445 75.4668C24.2288 75.5879 24.0506 75.7096 23.8737 75.7078C21.7985 75.6871 19.7226 75.6732 17.6488 75.6025C16.6355 75.5681 15.6172 75.4729 14.6169 75.3094C12.9853 75.0426 11.3666 74.6972 9.65365 74.3822C9.01494 72.2372 8.46229 70.0956 7.9183 67.9518C7.84492 67.6626 7.81511 67.3625 7.7793 66.9795Z" fill="#601C0D"/>
<path d="M393.505 134.651C393.505 136.579 393.505 138.397 393.505 140.303C392.731 140.294 391.965 140.63 391.232 139.992C389.969 140.756 388.558 140.724 387.132 140.32C385.915 139.976 385.294 139.078 385.193 137.819C384.984 135.211 386.195 134.181 388.765 134.192C389.632 134.196 390.499 134.193 391.355 134.193C391.515 132.369 390.517 131.459 388.852 131.81C388.666 131.849 388.441 131.821 388.297 131.918C387.272 132.613 386.474 132.192 385.67 131.374C386.258 130.443 387.221 130.139 388.209 129.928C389.101 129.738 390.002 129.758 390.898 130.006C392.501 130.451 393.403 131.522 393.498 133.176C393.524 133.63 393.504 134.086 393.505 134.651ZM390.816 135.95C390.057 135.952 389.297 135.927 388.54 135.964C387.698 136.005 387.238 136.436 387.152 137.178C387.071 137.876 387.581 138.597 388.367 138.69C389.074 138.774 389.805 138.738 390.516 138.664C390.913 138.622 391.378 138.459 391.414 137.942C391.456 137.339 391.435 136.73 391.407 136.126C391.404 136.062 391.165 136.009 390.816 135.95Z" fill="#070707"/>
<path d="M220.561 136.027C218.752 136.027 217.044 136.027 215.342 136.027C215.131 136.888 215.383 137.564 216.09 138.07C217.09 138.786 218.157 138.666 220.006 137.622C220.421 138.041 220.842 138.466 221.325 138.953C220.433 140.02 219.226 140.488 217.885 140.568C214.695 140.757 212.97 138.677 213.094 136.119C213.149 134.989 213.094 133.828 213.344 132.739C213.778 130.852 215.183 129.898 217.288 129.803C219.086 129.722 220.469 130.638 221.147 132.383C221.593 133.528 221.681 134.72 221.587 136.027C221.252 136.027 220.958 136.027 220.561 136.027ZM219.489 133.903C219.394 133.577 219.35 133.226 219.194 132.932C218.862 132.308 218.407 131.857 217.608 131.834C216.063 131.79 215.202 132.65 215.241 134.343C216.562 134.343 217.885 134.348 219.209 134.332C219.306 134.331 219.402 134.178 219.489 133.903Z" fill="#070707"/>
<path d="M364.418 140.534C361.995 140.152 360.793 138.952 360.645 136.62C360.567 135.385 360.546 134.093 360.818 132.9C361.444 130.156 364.631 128.9 367.053 130.344C368.421 131.159 368.884 132.518 369.059 133.992C369.135 134.624 369.072 135.273 369.072 136.012C366.951 136.012 364.876 136.012 362.719 136.012C362.631 136.97 362.942 137.642 363.666 138.092C365.039 138.943 366.274 138.447 367.428 137.604C367.905 138.086 368.352 138.536 368.848 139.037C367.602 140.154 366.196 140.738 364.418 140.534ZM365.022 131.844C363.452 131.905 362.787 132.608 362.713 134.27C364.131 134.27 365.549 134.27 366.967 134.27C366.902 132.721 366.461 132.13 365.022 131.844Z" fill="#070707"/>
<path d="M249.741 129.858C252.237 129.592 253.748 130.729 254.359 133.179C254.575 134.045 254.571 134.967 254.683 136.012C252.466 136.012 250.329 136.012 248.166 136.012C248.062 137.086 248.456 137.772 249.252 138.192C250.617 138.913 251.81 138.391 252.83 137.615C253.336 138.077 253.802 138.503 254.263 138.924C252.703 140.928 249.118 141.108 247.383 139.52C246.88 139.059 246.473 138.374 246.281 137.716C245.841 136.21 245.917 134.643 246.194 133.11C246.538 131.206 247.736 130.142 249.741 129.858ZM251.001 131.87C250.813 131.861 250.625 131.843 250.437 131.845C248.917 131.863 248.176 132.661 248.184 134.306C249.571 134.306 250.957 134.306 252.393 134.306C252.475 133.228 252.083 132.45 251.001 131.87Z" fill="#070707"/>
<path d="M291.851 136.895C291.851 138.071 291.851 139.134 291.851 140.268C291.044 140.322 290.252 140.649 289.557 139.962C288.193 140.783 286.75 140.728 285.295 140.28C283.759 139.807 283.325 138.423 283.413 137.02C283.513 135.445 284.195 134.621 285.691 134.344C286.391 134.214 287.118 134.223 287.834 134.197C288.439 134.175 289.045 134.192 289.642 134.192C289.877 132.453 288.837 131.462 287.199 131.796C286.976 131.842 286.745 131.862 286.53 131.932C286.14 132.057 285.707 132.398 285.384 132.311C284.87 132.17 284.432 131.752 283.886 131.404C285.365 129.771 287.132 129.609 289.026 129.969C290.326 130.216 291.22 130.992 291.609 132.257C291.773 132.79 291.819 133.371 291.841 133.933C291.877 134.881 291.851 135.832 291.851 136.895ZM286.133 138.493C286.87 138.576 287.611 138.751 288.344 138.721C289.46 138.675 289.775 138.266 289.789 137.153C289.793 136.786 289.789 136.42 289.789 135.95C288.832 135.95 287.974 135.953 287.117 135.949C286.492 135.945 285.879 135.991 285.599 136.668C285.33 137.315 285.39 137.922 286.133 138.493Z" fill="#070707"/>
<path d="M328.782 134.982C329.653 134.36 330.555 134.159 331.531 134.187C332.402 134.212 333.273 134.193 334.132 134.193C334.47 132.617 333.482 131.498 331.975 131.707C331.605 131.759 331.187 131.812 330.896 132.016C330.148 132.539 329.557 132.271 328.959 131.789C328.815 131.672 328.666 131.56 328.449 131.391C328.832 130.814 329.337 130.437 329.946 130.26C330.667 130.051 331.415 129.813 332.152 129.81C334.781 129.799 336.382 131.046 336.364 133.852C336.351 135.976 336.362 138.1 336.362 140.294C335.614 140.266 334.893 140.653 334.209 140.077C334.112 139.995 333.794 140.129 333.602 140.215C332.311 140.798 331.003 140.662 329.723 140.243C328.937 139.985 328.367 139.415 328.151 138.576C327.827 137.318 327.821 136.105 328.782 134.982ZM330.123 136.724C329.909 137.93 330.267 138.592 331.307 138.718C331.939 138.795 332.599 138.773 333.231 138.687C334.08 138.571 334.279 138.277 334.299 137.38C334.309 136.936 334.3 136.491 334.3 135.964C333.219 135.964 332.238 135.911 331.268 135.991C330.904 136.021 330.567 136.363 330.123 136.724Z" fill="#070707"/>
<path d="M341.46 135.759C341.46 137.314 341.46 138.756 341.46 140.279C340.784 140.279 340.122 140.279 339.389 140.279C339.389 136.939 339.389 133.542 339.389 130.078C340.021 130.078 340.682 130.078 341.397 130.078C341.438 130.302 341.482 130.545 341.549 130.912C341.765 130.785 341.921 130.717 342.051 130.614C343.638 129.365 345.866 129.587 346.982 131.131C347.556 131.925 347.748 132.864 347.763 133.813C347.798 135.937 347.774 138.062 347.774 140.274C347.051 140.274 346.359 140.274 345.56 140.274C345.56 139.039 345.56 137.799 345.56 136.558C345.559 135.61 345.601 134.658 345.547 133.713C345.482 132.582 344.627 131.844 343.504 131.855C342.349 131.868 341.554 132.568 341.469 133.711C341.422 134.353 341.46 135.001 341.46 135.759Z" fill="#070707"/>
<path d="M195.522 130.024C196.18 130.013 196.745 130.013 197.324 130.013C197.41 130.324 197.483 130.592 197.579 130.941C198.487 130.179 199.392 129.722 200.54 129.829C202.043 129.969 202.984 130.772 203.46 132.143C203.631 132.635 203.721 133.177 203.728 133.698C203.757 135.862 203.741 138.027 203.741 140.276C203.015 140.276 202.321 140.276 201.526 140.276C201.526 139.072 201.526 137.867 201.526 136.662C201.526 135.713 201.557 134.762 201.517 133.814C201.467 132.605 200.626 131.836 199.455 131.857C198.248 131.879 197.477 132.608 197.434 133.843C197.397 134.905 197.426 135.97 197.426 137.034C197.426 138.095 197.426 139.156 197.426 140.289C196.734 140.289 196.071 140.289 195.334 140.289C195.319 140.027 195.289 139.735 195.289 139.443C195.285 136.632 195.282 133.821 195.293 131.009C195.294 130.684 195.381 130.359 195.522 130.024Z" fill="#070707"/>
<path d="M317.027 136.44C317.027 134.276 317.027 132.226 317.027 130.093C317.756 130.093 318.451 130.093 319.182 130.093C319.222 130.363 319.262 130.642 319.322 131.052C320.326 129.969 321.475 129.62 322.79 129.882C323.967 130.117 324.743 130.866 325.156 131.96C325.339 132.448 325.459 132.989 325.467 133.508C325.5 135.746 325.481 137.984 325.481 140.291C324.785 140.291 324.123 140.291 323.342 140.291C323.342 139.566 323.342 138.818 323.342 138.07C323.342 136.702 323.373 135.334 323.333 133.968C323.293 132.629 322.403 131.801 321.162 131.863C319.958 131.923 319.273 132.592 319.249 133.809C319.221 135.176 319.242 136.543 319.242 137.911C319.242 138.669 319.242 139.428 319.242 140.274C318.518 140.274 317.825 140.274 317.027 140.274C317.027 139.037 317.027 137.796 317.027 136.44Z" fill="#070707"/>
<path d="M257.223 139.12C257.223 136.054 257.223 133.095 257.223 130.074C257.937 130.074 258.608 130.074 259.352 130.074C259.401 130.32 259.457 130.597 259.526 130.94C260.433 130.142 261.4 129.659 262.641 129.839C264.031 130.04 264.929 130.79 265.374 132.073C265.557 132.6 265.655 133.181 265.663 133.74C265.696 135.899 265.676 138.06 265.676 140.29C264.982 140.29 264.32 140.29 263.537 140.29C263.537 139.722 263.537 139.127 263.537 138.532C263.537 137.052 263.566 135.571 263.529 134.092C263.495 132.721 262.81 131.974 261.586 131.862C260.317 131.745 259.455 132.486 259.443 133.765C259.423 135.926 259.437 138.088 259.437 140.305C258.717 140.305 258.044 140.305 257.273 140.305C257.256 139.949 257.24 139.588 257.223 139.12Z" fill="#070707"/>
<path d="M268.348 136.707C268.335 135.812 268.335 135.014 268.33 134.217C268.313 131.615 269.88 129.726 272.948 129.806C274.385 129.843 275.722 130.189 276.681 131.542C276.18 132.002 275.693 132.449 275.254 132.853C274.65 132.53 274.184 132.19 273.662 132.017C272.126 131.509 270.78 132.278 270.537 133.853C270.406 134.705 270.394 135.608 270.516 136.461C270.783 138.315 272.71 139.101 274.322 138.073C274.606 137.892 274.856 137.656 275.217 137.369C275.642 137.879 276.076 138.4 276.542 138.96C276.033 140.255 273.611 140.818 271.78 140.506C269.896 140.184 268.579 138.9 268.348 136.707Z" fill="#070707"/>
<path d="M357.784 139.82C356.324 140.669 354.856 140.758 353.331 140.36C351.728 139.94 350.746 138.879 350.551 137.278C350.394 135.983 350.431 134.648 350.524 133.341C350.655 131.491 351.758 130.344 353.534 129.967C355.387 129.575 357.158 129.759 358.55 131.266C358.623 131.344 358.661 131.455 358.739 131.593C358.267 132.017 357.795 132.44 357.351 132.838C356.786 132.539 356.31 132.219 355.787 132.025C354.362 131.496 352.538 132.318 352.567 134.257C352.576 134.864 352.57 135.472 352.569 136.079C352.565 138.325 354.726 139.069 356.362 138.1C356.651 137.929 356.899 137.69 357.237 137.427C357.491 137.658 357.766 137.894 358.025 138.147C358.265 138.382 358.489 138.636 358.805 138.972C358.465 139.26 358.16 139.518 357.784 139.82Z" fill="#070707"/>
<path d="M82.4257 13.4897C83.5058 14.1807 84.4964 14.9383 85.5175 15.6525C88.5116 17.7466 91.7066 19.453 95.2821 20.5636C95.3703 20.5437 95.3549 20.5514 95.365 20.5904C95.4217 20.6826 95.4802 20.7063 95.5507 20.7007C95.6904 21.0651 95.8301 21.4295 95.9733 21.8781C92.6544 21.5478 89.4132 20.7805 86.3444 19.4424C83.7429 18.3081 81.2104 17.0155 78.5721 15.7801C78.4969 15.7672 78.4893 15.6904 78.4999 15.6534C79.7904 14.9231 81.0702 14.2299 82.4257 13.4897Z" fill="#F4A01D"/>
<path d="M36.1345 96.8721C34.1595 96.6749 32.1241 96.4651 30.1009 96.171C27.3772 95.775 24.797 94.8731 22.2704 93.8074C22.0273 93.7049 21.7678 93.6415 21.4305 93.5875C21.345 93.615 21.3514 93.6045 21.3582 93.5394C21.2987 93.4328 21.2324 93.3913 21.1662 93.3498C20.5253 91.5719 19.8844 89.7941 19.2285 87.936C19.6226 88.0282 20.0633 88.1498 20.4359 88.3811C24.1951 90.7144 27.875 93.1851 31.9086 95.0431C33.2808 95.6752 34.6881 96.2313 36.1345 96.8721Z" fill="#632606"/>
<path d="M208.597 140.358C207.428 140.094 207.086 139.265 207.016 138.314C206.933 137.182 206.944 136.042 206.93 134.905C206.918 133.962 206.927 133.019 206.927 132.01C206.551 131.951 206.237 131.901 205.904 131.849C205.904 131.231 205.904 130.673 205.904 130.077C206.229 130.032 206.517 129.992 206.906 129.937C206.906 128.954 206.906 127.984 206.906 126.955C207.637 126.955 208.265 126.955 209.006 126.955C209.006 127.902 209.006 128.867 209.006 129.952C209.581 129.987 210.055 130.015 210.597 130.048C210.597 130.633 210.597 131.219 210.597 131.89C210.122 131.911 209.648 131.933 209.072 131.959C209.072 133.877 209.05 135.726 209.086 137.573C209.096 138.096 209.347 138.529 210.014 138.456C210.194 138.436 210.38 138.473 210.613 138.486C210.613 139.151 210.613 139.777 210.613 140.558C209.934 140.492 209.312 140.431 208.597 140.358Z" fill="#070707"/>
<path d="M376.984 131.069C376.984 130.673 376.984 130.38 376.984 130.049C377.675 130.049 378.272 130.049 378.956 130.049C379.009 130.334 379.066 130.633 379.126 130.955C381.045 129.515 382.392 129.428 384.064 130.656C383.861 130.956 383.663 131.264 383.45 131.561C383.233 131.864 383.001 132.158 382.754 132.484C382.431 132.31 382.157 132.122 381.854 132.007C380.483 131.488 379.222 132.267 379.079 133.738C379.021 134.339 379.05 134.949 379.048 135.555C379.045 137.109 379.047 138.662 379.047 140.288C378.382 140.288 377.754 140.288 376.984 140.288C376.984 137.281 376.984 134.225 376.984 131.069Z" fill="#070707"/>
<path d="M192.099 133.019C192.099 135.487 192.099 137.842 192.099 140.279C191.367 140.279 190.672 140.279 189.943 140.279C189.943 135.467 189.943 130.662 189.943 125.752C190.372 125.752 190.742 125.747 191.112 125.754C191.406 125.759 191.7 125.78 192.099 125.799C192.099 128.212 192.099 130.558 192.099 133.019Z" fill="#070707"/>
<path d="M226.701 140.513C224.954 140.125 224.3 139.459 224.289 137.922C224.26 133.974 224.286 130.026 224.293 126.077C224.294 126.009 224.34 125.94 224.386 125.812C224.992 125.812 225.62 125.812 226.347 125.812C226.369 126.124 226.412 126.449 226.413 126.774C226.418 130.115 226.416 133.456 226.416 136.797C226.416 137.025 226.403 137.254 226.419 137.48C226.47 138.218 226.63 138.378 227.374 138.45C227.555 138.468 227.738 138.474 227.959 138.487C227.959 139.16 227.959 139.787 227.959 140.513C227.538 140.513 227.168 140.513 226.701 140.513Z" fill="#070707"/>
<path d="M367.476 89.0562C367.733 90.9045 366.455 92.2789 364.981 92.5356C363.738 92.752 362.713 92.3559 361.953 91.4082C361.186 90.4523 361.026 89.3049 361.557 88.2052C362.076 87.132 362.946 86.4452 364.243 86.4343C365.998 86.4195 367.098 87.2557 367.476 89.0562Z" fill="#9E1927"/>
<path d="M99.0044 59.0246C97.8309 59.1408 96.8124 58.5718 95.8231 58.06C93.6079 56.9143 91.4538 55.6505 89.2246 54.3751C89.9337 54.1638 90.6934 54.0134 91.4525 53.8604C93.7292 53.4013 96.0057 52.9413 98.3681 52.4766C98.1993 54.1729 97.9447 55.8742 97.6908 57.5707C98.1174 58.0237 98.5524 58.4856 99.0044 59.0246Z" fill="#BB5A29"/>
<path d="M130.279 155.739C131.129 155.054 132.037 154.445 132.934 153.82C133.272 153.585 133.586 153.315 133.945 152.995C136.347 155.002 139.312 158.314 140.45 160.194C136.79 159.22 133.451 157.775 130.279 155.739Z" fill="#F15B22"/>
<path d="M374.025 131.247C374.025 134.314 374.025 137.274 374.025 140.298C373.274 140.298 372.57 140.298 371.838 140.298C371.838 136.881 371.838 133.506 371.838 130.01C372.229 130.01 372.599 130.005 372.969 130.012C373.305 130.019 373.641 130.04 374.025 130.057C374.025 130.46 374.025 130.8 374.025 131.247Z" fill="#070707"/>
<path d="M230.72 140.36C230.107 140.374 230.215 140.001 230.214 139.72C230.208 137.899 230.211 136.078 230.211 134.257C230.211 132.894 230.211 131.531 230.211 130.09C230.903 130.09 231.56 130.09 232.284 130.09C232.284 133.463 232.284 136.854 232.284 140.361C231.795 140.361 231.314 140.361 230.72 140.36Z" fill="#070707"/>
<path d="M278.83 134.388C278.83 132.881 278.83 131.489 278.83 130.055C279.565 130.055 280.195 130.055 280.898 130.055C280.898 133.45 280.898 136.841 280.898 140.296C280.248 140.296 279.591 140.296 278.83 140.296C278.83 138.349 278.83 136.425 278.83 134.388Z" fill="#070707"/>
<path d="M314.069 134.616C314.069 136.577 314.069 138.425 314.069 140.316C313.336 140.316 312.706 140.316 312.002 140.316C312.002 136.924 312.002 133.533 312.002 130.077C312.649 130.077 313.305 130.077 314.069 130.077C314.069 131.565 314.069 133.033 314.069 134.616Z" fill="#070707"/>
<path d="M252.54 126.024C252.918 126.344 253.24 126.608 253.609 126.911C253.098 127.378 252.717 127.728 252.286 128.122C251.617 127.501 250.991 126.921 250.337 126.314C249.624 126.934 248.98 127.493 248.26 128.119C247.906 127.691 247.577 127.293 247.197 126.833C248.166 125.911 249.223 124.904 250.337 123.843C251.097 124.596 251.79 125.282 252.54 126.024Z" fill="#070707"/>
<path d="M20.4875 53.5606C18.8245 53.4828 17.101 53.3687 15.3835 53.1958C14.2274 53.0794 13.0775 52.8936 11.9302 52.7063C11.6968 52.6682 11.4873 52.4845 11.2002 52.3151C11.0623 52.0132 10.9909 51.7642 10.9258 51.4335C14.2502 51.3946 17.4047 52.1609 20.4875 53.5606Z" fill="#B33904"/>
<path d="M93.8438 165.43C95.0371 165.112 96.3067 164.661 97.6016 164.57C99.2561 164.454 100.932 164.609 102.597 164.684C103.541 164.727 104.481 164.845 105.52 164.933C105.617 164.938 105.608 165.014 105.6 165.051C101.714 165.505 97.8315 165.756 93.8438 165.43Z" fill="#686832"/>
<path d="M68.5834 143.997C68.6624 144.023 68.6695 144.106 68.5861 144.159C67.7811 144.446 67.0688 144.716 66.3356 144.905C64.9107 145.272 63.5215 145.827 62.0586 145.727C63.6035 144.865 65.1032 144.067 66.6028 143.269C66.6942 143.27 66.7855 143.271 66.9451 143.269C67.5104 143.501 68.0073 143.736 68.5834 143.997Z" fill="#686832"/>
<path d="M230.273 125.895C230.954 125.807 231.596 125.807 232.294 125.807C232.294 126.479 232.294 127.151 232.294 127.895C231.63 127.895 230.968 127.895 230.234 127.895C230.234 127.266 230.234 126.625 230.273 125.895Z" fill="#070707"/>
<path d="M314.069 126.667C314.069 127.139 314.069 127.514 314.069 127.928C313.342 127.928 312.705 127.928 311.998 127.928C311.998 127.218 311.998 126.516 311.998 125.783C312.667 125.783 313.308 125.783 313.999 125.783C314.023 126.057 314.046 126.313 314.069 126.667Z" fill="#070707"/>
<path d="M280.583 125.755C280.777 125.969 280.938 126.176 280.957 126.395C280.999 126.881 280.97 127.374 280.97 127.915C280.26 127.915 279.628 127.915 278.912 127.915C278.912 127.233 278.912 126.537 278.912 125.752C279.437 125.752 279.961 125.752 280.583 125.755Z" fill="#070707"/>
<path d="M81.2617 106.702C80.5343 106.393 79.9253 106.896 79.274 106.858C78.8408 106.833 78.3992 106.953 77.8613 107.002C78.3499 106.597 78.9095 106.144 79.5336 105.811C80.567 105.26 81.6419 104.788 82.7879 104.283C82.3601 105.079 81.8438 105.874 81.2617 106.702Z" fill="#3D0906"/>
<path d="M373.912 127.857C373.206 127.928 372.574 127.928 371.877 127.928C371.877 127.22 371.877 126.562 371.877 125.827C372.54 125.827 373.2 125.827 373.985 125.827C373.985 126.466 373.985 127.126 373.912 127.857Z" fill="#070707"/>
<path d="M30.7133 126.351C29.8473 126.711 28.9171 127.01 27.8965 127.316C28.2065 126.893 28.607 126.463 29.07 125.999C29.6381 126.072 30.1436 126.18 30.7133 126.351Z" fill="#4D2508"/>
<path d="M21.166 93.4156C21.2319 93.391 21.2981 93.4325 21.3621 93.535C21.2954 93.5578 21.2309 93.5197 21.166 93.4156Z" fill="#FD691B"/>
<path d="M95.5394 20.6453C95.4816 20.7063 95.4232 20.6825 95.3633 20.5824C95.4089 20.5535 95.4678 20.5717 95.5394 20.6453Z" fill="#258F61"/>
<path d="M40.4942 97.003C46.1952 97.0366 51.5543 95.8397 56.5573 93.2865C59.6587 91.7038 62.6416 89.8883 65.6681 88.1605C68.8461 86.3462 72.1459 84.9358 75.8144 84.3635C78.7634 83.9034 81.7038 83.972 84.6546 83.998C85.3654 84.0043 86.0747 84.1807 86.8588 84.3334C85.9526 85.3276 85.0216 86.3262 83.9811 87.1936C82.2709 88.6195 80.5286 90.0141 78.7257 91.3197C77.32 92.3377 75.8319 93.2531 74.3263 94.12C72.1571 95.3689 69.8588 96.3598 67.4655 97.0924C64.8313 97.8987 62.1727 98.5708 59.4046 98.8398C57.4865 99.0261 55.5829 99.2844 53.6485 99.2778C52.5947 99.2742 51.533 99.5274 50.4876 99.4622C47.1018 99.2511 43.6996 99.1062 40.4171 98.1158C40.1493 98.035 39.9175 97.8349 39.6641 97.5596C39.718 97.3539 39.7768 97.2789 39.8356 97.204C40.0308 97.1458 40.2261 97.0877 40.4942 97.003Z" fill="#94151E"/>
<path d="M64.3088 117.092C63.1297 117.091 62.0375 117.015 60.9456 117.02C58.4595 117.03 55.9833 116.912 53.4219 116.551C53.8795 116.202 54.4221 115.862 54.9891 115.569C60.0805 112.943 65.3022 110.617 70.7912 108.945C72.6685 108.374 74.5949 107.963 76.5982 107.473C73.8567 109.596 70.9978 111.701 68.1834 113.864C66.9562 114.807 65.8204 115.869 64.6098 116.937C64.5162 117.017 64.4561 117.036 64.3088 117.092Z" fill="#FD691B"/>
<path d="M77.6964 107C77.6596 107.073 77.5556 107.15 77.3828 107.228C77.4191 107.154 77.5241 107.079 77.6964 107Z" fill="#3D0906"/>
<path d="M86.3602 71.4069C86.439 71.4126 86.4439 71.5052 86.4449 71.551C85.8886 71.9122 85.3234 72.2147 84.7752 72.5453C82.4727 73.9343 80.2367 75.4479 77.8621 76.6993C74.0828 78.6908 70.0081 79.886 65.7869 80.5039C62.7765 80.9445 59.7173 80.9587 56.7017 80.722C52.938 80.4266 49.1801 79.882 45.6149 78.5204C44.0955 77.9401 42.6223 77.2392 41.1719 76.5199C41.6613 76.3647 42.1081 76.2891 42.5523 76.1998C45.348 75.6379 48.0618 74.8 50.5736 73.4488C53.9127 71.6527 56.9513 69.3927 59.999 67.0737C60.0416 67.0543 60.1338 67.0401 60.2266 67.0467C60.4692 67.0356 60.6289 67.0458 60.7671 66.9963C63.0113 66.192 65.2619 65.4039 67.49 64.5568C68.2483 64.2686 68.9483 63.8274 69.6749 63.4561C69.2251 63.1633 68.8302 63.0778 68.4355 62.9914C68.1118 62.9205 67.7883 62.8484 67.5219 62.7177C68.0926 62.4228 68.5907 62.142 69.1227 61.9603C70.3998 61.5241 71.6929 61.1345 72.9795 60.7261C72.6974 61.5438 71.8863 61.8151 71.309 62.325C70.9489 62.6429 70.533 62.8978 70.0176 63.2712C71.1031 63.5407 72.0378 63.7437 72.9556 64.0056C77.3659 65.2641 81.1813 67.6367 84.8091 70.3579C85.2901 70.7186 85.7902 71.054 86.3602 71.4069Z" fill="#4D2508"/>
<path d="M59.9568 67.093C56.9517 69.3927 53.9132 71.6527 50.574 73.4489C48.0622 74.8 45.3484 75.6379 42.5527 76.1998C42.1086 76.2891 41.6617 76.3647 41.123 76.4612C40.9019 76.4631 40.774 76.4504 40.5027 76.3739C38.5908 75.3553 36.8277 74.3921 35.3457 72.9928C35.9363 72.6703 36.5022 72.4521 37.0243 72.1568C39.3222 70.8569 41.6155 69.5482 43.8926 68.2123C44.5661 67.8171 45.1809 67.3223 45.8982 66.8711C46.1251 66.8682 46.2764 66.8672 46.4938 66.9327C50.1068 67.7478 53.6782 67.739 57.2629 67.3522C58.1598 67.2554 59.0588 67.1789 59.9568 67.093Z" fill="#BB5A29"/>
<path d="M66.5526 143.208C65.1021 144.066 63.6025 144.864 62.0633 145.729C62.0239 145.795 62.0275 145.783 61.9557 145.787C61.721 145.858 61.558 145.927 61.3127 146.008C60.9668 146.097 60.7032 146.175 60.3325 146.252C59.324 146.308 58.4232 146.393 57.5208 146.416C55.6747 146.464 53.822 146.674 51.9884 146.259C51.8722 146.254 51.756 146.249 51.5521 146.236C50.5181 145.304 49.571 144.38 48.6256 143.455C45.8577 140.745 42.9931 138.143 39.8506 135.871C38.4072 134.827 36.8779 133.902 35.3398 132.862C38.271 132.532 41.1378 131.784 43.9463 130.785C44.1941 130.697 44.4516 130.636 44.7858 130.559C46.8069 131.593 48.7927 132.553 50.6773 133.682C54.714 136.1 58.6892 138.62 62.7096 141.066C63.9407 141.814 65.237 142.456 66.5526 143.208Z" fill="#0F3B14"/>
<path d="M60.439 146.253C60.7026 146.175 60.9662 146.097 61.3819 146.009C61.6983 145.927 61.8626 145.856 62.0269 145.784C62.0269 145.784 62.0233 145.795 62.0175 145.793C63.5199 145.826 64.9091 145.271 66.334 144.904C67.0672 144.716 67.7794 144.446 68.5906 144.201C71.1919 145.149 73.6929 146.126 76.321 146.759C78.9129 147.384 81.5348 147.703 84.2873 147.872C83.6007 148.401 82.8339 148.949 82.0215 149.417C79.8926 150.645 77.77 151.888 75.5967 153.034C72.2867 154.78 68.7037 155.689 65.028 156.263C64.6947 156.315 64.3471 156.275 63.8993 156.27C62.0687 155.028 60.3126 153.836 58.6318 152.546C57.3704 151.577 56.2126 150.475 54.9932 149.451C54.6807 149.188 54.3093 148.996 53.8857 148.757C53.8063 148.743 53.8159 148.64 53.9087 148.586C55.6804 148.001 57.3647 147.486 59.0349 146.928C59.5236 146.765 59.972 146.481 60.439 146.253Z" fill="#632606"/>
<path d="M92.1903 41.9976C92.3555 41.9995 92.5207 42.0015 92.7689 42.0032C93.8333 42.2277 94.8109 42.4717 95.7973 42.6719C96.7177 42.8586 97.6474 42.9989 98.7715 43.1941C98.3868 43.3561 98.1925 43.4578 97.9866 43.5217C93.0439 45.0553 88.6571 47.6082 84.6111 50.7898C84.3749 50.9756 84.1089 51.1236 83.7121 51.2817C78.7691 48.6772 73.5656 47.7193 68.1855 47.4759C68.4725 47.3172 68.7517 47.142 69.0478 47.0024C70.5597 46.2897 72.0759 45.5862 73.6274 44.8086C73.8709 44.7239 74.0776 44.7101 74.4395 44.668C74.6893 44.5905 74.7839 44.5413 74.8786 44.4921C74.8786 44.4921 74.8888 44.5148 75.0182 44.5202C76.3521 44.457 77.5642 44.4515 78.7596 44.3071C81.7903 43.9412 84.8223 43.5676 87.8361 43.0862C89.3079 42.851 90.7401 42.3682 92.1903 41.9976Z" fill="#FD691B"/>
<path d="M74.8314 44.5234C74.782 44.5414 74.6873 44.5906 74.5391 44.6475C74.5857 44.6217 74.6859 44.5882 74.8314 44.5234Z" fill="#FEFCFC"/>
<path d="M46.4279 66.8665C46.2767 66.8675 46.1254 66.8685 45.8107 66.8569C45.43 66.7788 45.2139 66.7086 44.9951 66.6484C40.9717 65.5422 37.3129 63.691 34.0137 61.2045C34.7269 60.7581 35.3889 60.3809 36.0109 59.9466C38.9377 57.9029 41.8543 55.8446 44.771 53.7865C44.8917 53.7014 44.9772 53.5663 45.0791 53.4544C45.3404 53.3672 45.6018 53.28 46.0455 53.1829C47.9778 52.912 49.7248 52.6265 51.4797 52.4038C52.0615 52.33 52.6856 52.3201 53.2533 52.4469C57.7115 53.4418 62.2152 54.1513 66.7645 54.5168C69.1745 54.7103 71.6005 54.722 74.0202 54.773C75.9535 54.8137 77.8883 54.7897 79.8224 54.7944C79.0337 55.5934 78.27 56.4191 77.4499 57.1846C76.3834 58.1801 75.2722 59.1277 74.1437 60.1627C73.7798 60.3766 73.4526 60.5238 73.0528 60.6986C71.6936 61.1348 70.4006 61.5244 69.1235 61.9606C68.5914 62.1423 68.0933 62.4231 67.4513 62.7188C67.091 62.8459 66.8591 62.9131 66.5527 62.9166C62.9138 62.6626 59.3531 62.5082 55.8176 63.2233C52.4756 63.8993 49.3377 65.0854 46.4279 66.8665Z" fill="#E8433F"/>
<path d="M79.8909 54.7582C77.8874 54.7895 75.9526 54.8135 74.0193 54.7728C71.5996 54.7218 69.1736 54.7101 66.7636 54.5165C62.2143 54.1511 57.7106 53.4415 53.2524 52.4466C52.6847 52.3199 52.0606 52.3298 51.4788 52.4036C49.7238 52.6263 47.9769 52.9118 46.127 53.1737C46.9007 52.6621 47.7745 52.1497 48.7241 51.6094C51.5663 50.048 54.548 49.0898 57.6225 48.4559C60.507 47.8612 63.4277 47.4494 66.3881 47.4763C66.9483 47.4814 67.5079 47.552 68.1258 47.5342C73.5639 47.7192 78.7673 48.6772 83.6375 51.3083C83.7095 51.3425 83.7051 51.4551 83.7032 51.5113C82.4544 52.6191 81.2074 53.6707 79.8909 54.7582Z" fill="#E81D07"/>
<path d="M60.3332 146.252C59.9733 146.482 59.5249 146.765 59.0361 146.928C57.366 147.486 55.6816 148.001 53.9123 148.535C53.2144 147.829 52.6068 147.122 51.9941 146.337C53.8226 146.674 55.6754 146.464 57.5215 146.416C58.4239 146.393 59.3247 146.308 60.3332 146.252Z" fill="#070707"/>
<path d="M33.72 61.2976C33.7389 61.2235 33.843 61.2186 33.8931 61.233C37.3122 63.6909 40.9709 65.5422 44.9944 66.6484C45.2132 66.7086 45.4292 66.7788 45.7343 66.8588C45.1805 67.3225 44.5656 67.8174 43.8922 68.2125C41.6151 69.5484 39.3218 70.8571 37.0238 72.157C36.5017 72.4524 35.9359 72.6706 35.3452 72.993C35.3003 73.0617 35.1965 73.0591 35.1454 73.0498C34.0756 72.1422 33.0283 71.274 32.0443 70.3392C30.0921 68.4846 28.1748 66.5932 26.207 64.6494C27.5207 64.1201 28.9009 63.7304 30.2111 63.1758C31.4136 62.6669 32.5407 61.9802 33.72 61.2976Z" fill="#AA190B"/>
<path d="M60.2266 67.0468C62.2621 65.7272 64.3904 64.4141 66.5726 63.0405C66.8583 62.9129 67.0902 62.8458 67.3933 62.7778C67.7883 62.8486 68.1117 62.9206 68.4354 62.9915C68.8301 63.0779 69.225 63.1635 69.6749 63.4562C68.9482 63.8275 68.2482 64.2687 67.49 64.557C65.2619 65.4041 63.0113 66.1921 60.767 66.9964C60.6288 67.046 60.4691 67.0358 60.2266 67.0468Z" fill="#686832"/>
<path d="M61.9558 145.787C61.8633 145.856 61.6989 145.927 61.4648 145.998C61.5581 145.927 61.721 145.858 61.9558 145.787Z" fill="#686832"/>
</g>
<defs>
<clipPath id="clip0_157_281">
<rect width="394" height="177" fill="white"/>
</clipPath>
</defs>
</svg>
